<svg xmlns="http://www.w3.org/2000/svg" version="1.1" xmlns:xlink="http://www.w3.org/1999/xlink" xmlns:svgjs="http://svgjs.dev/svgjs" width="100%" height="100%" viewBox="0 0 1000 600"><rect width="1000" height="600" x="0" y="0" fill="#533549"/><g><circle r="166.66666666666666" cx="305.86205546061194" cy="328.08425328474743" fill="#ea1179" transform="matrix(0.8980183523731056,0,0,0.8980183523731056,0,5.374303062788968)"/><path d="M196.55193349745994 313.2398721422515L196.55193349745994 308.8274163267322L249.67111312274963 307.2660858073946L247.87218882873026 397.72143002553975L267.9318918054371 397.72143002553975L267.9318918054371 402.133885841059L193.70080820127825 402.133885841059L193.70080820127825 397.72143002553975L213.5229174033033 397.72143002553975L214.2356987273487 312.62891672164113L196.55193349745994 313.2398721422515ZM252.2846446442495 276.9559085515584L252.2846446442495 276.9559085515584Q251.94522496613266 281.6059581417595 249.84082296180807 285.7468782147853Q247.7703629252952 289.8538563199993 244.4101081119382 292.8746914552395Q241.0837952663929 295.9294685582913 236.7731653543087 297.59262498106386Q232.49647741003616 299.2897233716483 227.8124858520234 299.05212959696644L227.8124858520234 299.05212959696644Q222.9248424871405 298.91636172571964 218.8857483175498 296.87984365701845Q214.8127121801474 294.84332558831727 211.9615868839657 291.58489667839535Q209.11046158778402 288.2925258006618 207.6509569718815 284.0158378563892Q206.22539432379065 279.705207944305 206.5987559697192 274.81756457942214L206.5987559697192 274.81756457942214Q206.836349744401 270.16751498922105 208.97469371653727 266.0944788518186Q211.11303768867353 262.0553846822279 214.40540856640715 259.13637545042286Q217.69777944414076 256.1834242508061 221.9744673884133 254.58815176365684Q226.2850973004975 252.95893730869588 230.79937901945183 253.09470517994262L230.79937901945183 253.09470517994262Q235.58519648089964 253.2304730511894 239.65823261830207 255.1991071842672Q243.6973267878928 257.1677413173451 246.61633601969783 260.3582862916436Q249.5353452515029 263.58277323375387 251.0287918352171 267.8934031458381Q252.52223841893132 272.2040330579223 252.2846446442495 276.9559085515584ZM270.9187849728655 301.4280673437845L270.9187849728655 297.01561152826525L330.7924161926809 295.59004888017444L330.0796348686355 328.1403960115819Q332.2519208085834 322.7775650973354 335.0351621691417 317.8220377968292Q337.8523454975117 312.866510496323 341.41625211773885 308.92924223016723Q345.01410070577765 304.99197396401166 349.4265565212969 302.44632637813515Q353.83901233681615 299.8667368244469 359.20184325106266 299.2897233716483L359.20184325106266 299.2897233716483Q366.0241787812117 299.2897233716483 371.96402314825684 301.73354505408963Q377.9378094831137 304.1773667365311 382.89333678362 308.420112712992Q387.84886408412626 312.62891672164113 391.65036447903515 318.36510928181616Q395.4858068417558 324.1013018419912 398.0993383632557 330.55027572621174Q400.7468118525672 336.96530764262053 401.9347807259762 343.7197592371462Q403.12274959938526 350.47421083167177 402.8851558247035 356.9231847158923L402.8851558247035 356.9231847158923Q402.74938795345673 363.57581040698284 402.51179417877495 370.63573971181376L402.51179417877495 370.63573971181376Q402.2742004040931 376.71135195010567 402.0026646615996 384.04281699742995Q401.6971869512944 391.408224012566 401.2219994019308 398.43421134958515L401.2219994019308 398.43421134958515L418.02327346871573 398.671805124267L418.02327346871573 403.08426093978625L351.80249426811497 401.65869829169543L351.80249426811497 397.2462424761762L364.802267939991 397.4838362508579Q367.68733520398433 365.61232847568414 366.26177255589346 332.9262134730298L366.26177255589346 332.9262134730298Q366.60119223401034 318.0256896036993 364.63255810093256 311.20335407355026Q362.66392396785466 304.41496051121294 356.45254385831606 304.1773667365311L356.45254385831606 304.1773667365311Q354.4499677574265 304.7543801893298 351.08971294406956 306.4175366121025Q347.76340009852424 308.1146350026868 343.995841671427 312.22161310790085Q340.22828324432976 316.328591213115 336.4607248172325 323.42246248575753Q332.72710835794703 330.55027572621174 329.84204109395364 341.7511251040683L329.84204109395364 341.7511251040683L328.65407222054466 397.2462424761762L341.07683243962197 397.2462424761762L341.07683243962197 401.65869829169543L279.0309152798586 401.65869829169543L279.0309152798586 397.2462424761762L289.7565771083516 397.2462424761762L292.1325148551697 300.95287979442094L270.9187849728655 301.4280673437845Z " fill="#fde5ec" transform="matrix(0.8980183523731056,0,0,0.8980183523731056,0,5.374303062788968)"/><path d="M555.8620402124586 360.5043356974215L555.8620402124586 357.69392677548836L567.9512595433137 357.69392677548836L570.0702186511203 256.29615725875976L556.2635272013063 255.98388960076718L556.2635272013063 253.08426134797907L593.5125978332765 253.7980159948192L591.2375048964735 357.69392677548836L607.1631554540943 357.69392677548836L607.1631554540943 360.5043356974215L555.8620402124586 360.5043356974215ZM686.189177758927 330.1697632067151L686.189177758927 330.1697632067151Q686.189177758927 335.5675327234438 684.3601814763992 340.2515475933322Q682.5088803611576 344.91325763050696 679.4085086139456 348.7942985227002Q676.3081368667338 352.6753394148936 672.3601814763991 355.6864918312504Q668.3899212533508 358.69764424760734 664.1296982050237 360.7942985227002Q659.8471703239828 362.86864796507945 655.6092521083694 363.96158476805346Q651.3713338927561 365.05452157102735 647.7802558258416 365.05452157102735L647.7802558258416 365.05452157102735L646.9772818481464 365.05452157102735Q643.3862037812319 364.9876070728861 639.3490290600423 363.8723654371984Q635.3118543388528 362.7794286342244 631.3415941158044 360.7050791918452Q627.3936387254698 358.63072974946607 623.8248654912691 355.5749676676816Q620.2560922570683 352.5192055858973 617.5125978332765 348.3928115338527Q614.7691034094846 344.28872231452186 613.1185457886668 339.13630595764454Q611.467988167849 334.00619443348097 611.467988167849 327.80545093905715L611.467988167849 327.80545093905715Q611.467988167849 321.4708784483508 613.4308134466594 316.16232826247716Q615.3936387254698 310.87608290931735 618.560924970823 306.727384024559Q621.7282112161761 302.5563803070869 625.7653859373657 299.50061822530245Q629.8248654912691 296.4448561435181 633.9289547105999 294.4151163665664Q638.0553487626446 292.36307175690104 641.8471703239828 291.3816591174958Q645.6612967180349 290.4002464780906 648.4717056399679 290.4002464780906L648.4717056399679 290.4002464780906L649.0962409559531 290.4002464780906Q653.8917799894103 290.5563803070869 658.5088803611576 292.09541376433594Q663.1482855656185 293.61214238887123 667.2523747849493 296.2887223145218Q671.378768836994 298.9653022401724 674.8583227403396 302.6009899725144Q678.3601814763991 306.23667770485633 680.8583227403396 310.630729749466Q683.3787688369939 315.02478179407575 684.7839732979605 319.97645465652926Q686.189177758927 324.905822686269 686.189177758927 330.1697632067151ZM661.0962409559531 328.9206925747449L661.0962409559531 328.9206925747449Q661.0962409559531 326.9578672959345 661.0962409559531 323.5006182253025Q661.0962409559531 320.04336915467053 660.828582963388 316.0954137643359Q660.560924970823 312.1251535412876 659.8471703239828 308.0433691546705Q659.1334156771427 303.98388960076716 657.7282112161761 300.6827743591315Q656.3230067552096 297.3816591174958 654.0925234838342 295.3073096751166Q651.8397353797449 293.23296023273747 648.4717056399679 293.23296023273747L648.4717056399679 293.23296023273747Q642.0479138184066 293.23296023273747 638.3230067552096 302.0210643219567Q634.5980996920125 310.7868635784623 634.5980996920125 328.58612008403855L634.5980996920125 328.58612008403855Q634.5980996920125 337.46344350411294 635.3341591715664 343.7980159948192Q636.0925234838342 350.1548933182393 637.653861773797 354.2366777048564Q639.2152000637598 358.31846209147346 641.735646160414 360.2366777048564Q644.2337874243545 362.1548933182393 647.7802558258416 362.1548933182393L647.7802558258416 362.1548933182393L648.4717056399679 362.1548933182393Q651.8397353797449 361.998759489243 654.0925234838342 360.0359342104326Q656.3230067552096 358.07310893162224 657.7728208816036 354.0359342104326Q659.2226350079977 349.998759489243 659.9586944875516 343.7980159948192Q660.7170587998193 337.61957733310913 661.0962409559531 328.9206925747449ZM727.2746796176632 291.82775577177085L727.2746796176632 291.82775577177085Q732.3824863091129 291.82775577177085 736.5088803611575 294.28128737028385Q740.6129695804884 296.7571238015106 744.1371331492617 301.1511758461203L744.1371331492617 301.1511758461203L744.1371331492617 294.4151163665664L778.1743078704512 294.4151163665664L778.1743078704512 297.47087844835085L767.2672446734252 297.47087844835085L767.2672446734252 361.6864918312504Q767.2672446734252 372.1920680394289 763.8546052682208 379.9541498238155Q760.46427069573 387.7162316082021 755.0441963462877 392.86864796507945Q749.6241219968452 397.998759489243 742.8880625172914 400.54151041861104Q736.1520030377375 403.08426134797907 729.5497725544661 403.08426134797907L729.5497725544661 403.08426134797907Q723.75051604889 403.08426134797907 717.9512595433137 401.87980038143627Q712.1520030377375 400.6530345821798 707.5349026659902 398.04336915467053Q702.8954974615293 395.4113988944475 699.9958692087412 391.3296145078304Q697.0962409559531 387.2478301212133 697.0962409559531 381.44857361563703L697.0962409559531 381.44857361563703Q697.0962409559531 379.0173468498378 697.832300435507 376.69764424760734Q698.5906647477747 374.40024647809054 700.10739337231 372.5935550282765Q701.646426829559 370.7868635784624 703.9884342645032 369.69392677548836Q706.3527465321613 368.5786851398006 709.6315569410832 368.5786851398006L709.6315569410832 368.5786851398006Q712.553490026585 368.5786851398006 714.6278394689642 369.80545093905715Q716.7021889113435 371.00991190559984 718.0404788741687 372.905822686269Q719.3564640042803 374.7794286342244 719.9586944875516 377.09913123645487Q720.5386201381092 379.41883383868543 720.5386201381092 381.60470744463333L720.5386201381092 381.60470744463333Q720.5386201381092 383.63444722158505 720.1594379819754 385.4857483368267Q719.7579509931278 387.33704945206824 719.7579509931278 389.1437409018824L719.7579509931278 389.1437409018824Q719.7579509931278 391.1734806788341 720.1817428146892 393.13630595764454Q720.6278394689642 395.09913123645487 721.6761666065107 396.61585986099027Q722.746798576771 398.1548933182393 724.46427069573 399.13630595764454Q726.1817428146892 400.11771859704976 728.8583227403396 400.1846330951909L728.8583227403396 400.1846330951909Q732.8508877961018 399.8723654371984 735.7059063834624 397.2180903442616Q738.5832298035367 394.54151041861104 740.4568357514921 390.30359220299766Q742.3304416994475 386.0656739873843 743.2449398407115 380.6679044706556Q744.1371331492617 375.2478301212132 744.1371331492617 369.53779294649206L744.1371331492617 369.53779294649206L744.1371331492617 353.7682762178676Q744.1371331492617 355.1734806788341 742.8211480191501 356.82403829965193Q741.4828580563249 358.47459592046977 739.2523747849493 359.9244100468638Q736.9995866808601 361.3742241732579 734.099958428072 362.40024647809054Q731.200330175284 363.4039639502095 728.0776535953582 363.5600977792058L728.0776535953582 363.5600977792058Q721.9438245990757 363.5600977792058 717.2152000637598 361.998759489243Q712.4642706957301 360.4374211992802 708.8954974615293 357.80545093905715Q705.3267242273286 355.1734806788341 702.8954974615293 351.69392677548836Q700.46427069573 348.1920680394289 698.9698469039085 344.3110271472356Q697.4977279448007 340.42998625504225 696.828582963388 336.3482018684252Q696.1594379819753 332.28872231452186 696.1594379819753 328.58612008403855L696.1594379819753 328.58612008403855Q696.1594379819753 325.998759489243 696.8508877961018 322.2515475933322Q697.5646424429419 318.4820308647077 699.103675900191 314.40024647809054Q700.6204045247264 310.3184620914735 703.0516312905256 306.28128737028385Q705.4828580563249 302.2441126490943 708.9401071269568 299.03221673831365Q712.375051364875 295.820320827533 716.925237238481 293.81288588329505Q721.4754231120869 291.82775577177085 727.2746796176632 291.82775577177085ZM744.1371331492617 307.0396516825515L744.1371331492617 307.0396516825515Q741.9512595433137 302.177198150953 738.8954974615293 299.61214238887123Q735.8397353797449 297.0693914595032 733.0962409559531 295.9764546565292L733.0962409559531 295.9764546565292Q731.9140848221241 295.9764546565292 730.5311851938714 296.6009899725144Q729.1705903983323 297.2255252884995 727.7876907700795 298.71994908032104Q726.4270959745404 300.2143728721426 725.1334156771427 302.8017334669381Q723.8397353797449 305.38909406173366 722.8583227403396 309.3370494520683Q721.8769101009345 313.30730967511664 721.2746796176632 318.7496888572727Q720.6947539671055 324.21437287214263 720.6947539671055 331.50805316954035L720.6947539671055 331.50805316954035Q720.6947539671055 339.4262687829233 721.7653859373657 344.75712380151066Q722.8137130749122 350.08797882009804 724.5757948592989 353.25526506545117Q726.3378766436854 356.4225513108043 728.5683599150609 357.76084127362964Q730.8211480191501 359.09913123645487 733.0962409559531 359.09913123645487L733.0962409559531 359.09913123645487Q734.8806275730534 359.09913123645487 736.7765383537226 358.00619443348097Q738.650144301678 356.91325763050696 740.2337874243547 354.7050791918452Q741.7951257143175 352.5192055858973 742.8211480191501 349.2627000096891Q743.8248654912691 346.00619443348097 743.8248654912691 341.7682762178676L743.8248654912691 341.7682762178676Q743.8248654912691 341.456008559875 743.8248654912691 340.9876070728861Q743.8248654912691 340.5192055858973 743.8248654912691 339.33704945206824Q743.8248654912691 338.1548933182393 743.8694751566966 335.9690197122913Q743.9140848221241 333.76084127362964 743.9586944875516 330.0136293777188Q743.9809993202654 326.24411264909435 744.0256089856929 320.64559963794187Q744.0702186511204 315.02478179407575 744.1371331492617 307.0396516825515ZM816.828582963388 346.8760829093174L816.828582963388 346.8760829093174Q816.828582963388 349.93184499110174 815.6687316622729 352.6753394148936Q814.4865755284438 355.41883383868543 812.4345309187784 357.44857361563703Q810.4047911418266 359.5006182253025 807.6612967180349 360.6604695264178Q804.9178022942431 361.8426256602467 801.7728208816036 361.8426256602467L801.7728208816036 361.8426256602467Q798.7170587998193 361.8426256602467 795.9735643760274 360.6604695264178Q793.2300699522356 359.5006182253025 791.200330175284 357.44857361563703Q789.1482855656185 355.41883383868543 787.9884342645032 352.6753394148936Q786.8062781306743 349.93184499110174 786.8062781306743 346.8760829093174L786.8062781306743 346.8760829093174Q786.8062781306743 343.7311014966779 787.9884342645032 340.9876070728861Q789.1482855656185 338.24411264909435 791.200330175284 336.1920680394289Q793.2300699522356 334.16232826247716 795.9735643760274 332.98017212864823Q798.7170587998193 331.82032082753295 801.7728208816036 331.82032082753295L801.7728208816036 331.82032082753295Q804.9178022942431 331.82032082753295 807.6612967180349 332.98017212864823Q810.4047911418266 334.16232826247716 812.4345309187784 336.1920680394289Q814.4865755284438 338.24411264909435 815.6687316622729 340.9876070728861Q816.828582963388 343.7311014966779 816.828582963388 346.8760829093174ZM828.828582963388 300.6827743591315L828.828582963388 297.78314610634334L863.735646160414 296.7571238015106L862.553490026585 356.19950298366683L875.735646160414 356.19950298366683L875.735646160414 359.09913123645487L826.9549770154326 359.09913123645487L826.9549770154326 356.19950298366683L839.9586944875516 356.19950298366683L840.4270959745404 300.28128737028385L828.828582963388 300.6827743591315ZM865.4531182793733 276.8389081881278L865.4531182793733 276.8389081881278Q865.2077651195218 279.8946702699121 863.8471703239829 282.6158598609902Q862.4642706957301 285.31474461935454 860.2783970897822 287.29987473087874Q858.0925234838342 289.3073096751166 855.2598097291873 290.4002464780906Q852.4270959745404 291.51548811377836 849.3713338927561 291.35935428478206L849.3713338927561 291.35935428478206Q846.1594379819753 291.270134953927 843.5051628890386 289.9318449911017Q840.828582963388 288.59355502827646 838.9549770154326 286.45229108775595Q837.0590662347636 284.2887223145218 836.1222632607858 281.4783133925887Q835.1854602868082 278.64559963794187 835.4085086139456 275.43370372716123L835.4085086139456 275.43370372716123Q835.5869472756557 272.37794164537684 836.9921517366222 269.70136171972626Q838.3973561975888 267.04708662678945 840.560924970823 265.1288710134065Q842.7021889113435 263.18835056730995 845.5349026659903 262.14002342976346Q848.3676164206371 261.0693914595032 851.3341591715664 261.15861079035824L851.3341591715664 261.15861079035824Q854.4791405842059 261.24783012121327 857.1334156771427 262.54151041861104Q859.8099956027933 263.8351907160088 861.7282112161761 265.9318449911017Q863.646426829559 268.05080409890843 864.6278394689642 270.8835178535553Q865.6092521083694 273.71623160820207 865.4531182793733 276.8389081881278ZM877.6761666065107 292.92069257474486L877.6761666065107 290.0210643219567L917.0441963462877 289.084261347979L916.5757948592989 310.4745959204697Q917.9809993202654 306.9504323516966 919.832300435507 303.6939267754883Q921.6836015507486 300.43742119928015 924.0256089856929 297.8500606044846Q926.3899212533508 295.26270000968907 929.289549506139 293.5898375561575Q932.1891777589271 291.8946702699121 935.7133413277004 291.51548811377836L935.7133413277004 291.51548811377836Q940.1743078704512 291.51548811377836 944.0999584280721 293.1214360691687Q948.0256089856928 294.727384024559 951.282114561901 297.51548811377836Q954.5386201381093 300.28128737028385 957.0367614020497 304.05080409890843Q959.557207498704 307.8203208275329 961.2746796176632 312.05823904314633Q962.9921517366222 316.27385242604595 963.7951257143175 320.71251413608314Q964.5757948592989 325.15117584612034 964.4196610303026 329.3890940617337L964.4196610303026 329.3890940617337Q964.3304416994475 333.76084127362964 964.1743078704512 338.40024647809054L964.1743078704512 338.40024647809054Q964.018174041455 342.3928115338527 963.8174305470311 347.21065540002365Q963.638991885321 352.0508040989084 963.3044193946148 356.6679044706556L963.3044193946148 356.6679044706556L974.3676164206371 356.82403829965193L974.3676164206371 359.7236665524401L930.8508877961018 358.7868635784624L930.8508877961018 355.8872353256742L939.3936387254698 356.04336915467053Q941.289549506139 335.09913123645487 940.3304416994475 313.61957733310913L940.3304416994475 313.61957733310913Q940.5757948592989 303.82775577177085 939.282114561901 299.34448439630614Q937.9884342645032 294.8835178535553 933.9066498778861 294.727384024559L933.9066498778861 294.727384024559Q932.5683599150609 295.10656618069277 930.3824863091129 296.1995029836668Q928.1743078704512 297.31474461935454 925.7207762719382 300.01362937771887Q923.2449398407115 302.7125141360831 920.7691034094847 307.37422417325786Q918.3155718109717 312.05823904314633 916.4196610303026 319.41883383868543L916.4196610303026 319.41883383868543L915.638991885321 355.8872353256742L923.8025606585554 355.8872353256742L923.8025606585554 358.7868635784624L883.0070216250981 358.7868635784624L883.0070216250981 355.8872353256742L890.0776535953582 355.8872353256742L891.638991885321 292.60842491675226L877.6761666065107 292.92069257474486Z " fill="#f6b042" transform="matrix(0.8980183523731056,0,0,0.8980183523731056,0,5.374303062788968)"/></g></svg>